<?xml version="1.0" encoding="UTF-8" standalone="no"?>
<!DOCTYPE svg PUBLIC "-//W3C//DTD SVG 1.1//EN"
 "http://www.w3.org/Graphics/SVG/1.1/DTD/svg11.dtd">
<!-- Generated by graphviz version 2.47.3 (20210619.1520)
 -->
<!-- Pages: 1 -->
<svg width="576pt" height="192pt"
 viewBox="0.00 0.00 576.00 192.08" xmlns="http://www.w3.org/2000/svg" xmlns:xlink="http://www.w3.org/1999/xlink">
<g id="graph0" class="graph" transform="scale(0.79 0.79) rotate(0) translate(4 238.55)">
<polygon fill="white" stroke="transparent" points="-4,4 -4,-238.55 723.38,-238.55 723.38,4 -4,4"/>
<!-- Initial -->
<g id="node1" class="node">
<title>Initial</title>
<ellipse fill="black" stroke="black" cx="1.8" cy="-76.55" rx="1.8" ry="1.8"/>
</g>
<!-- &#45; -->
<g id="node3" class="node">
<title>&#45;</title>
<ellipse fill="none" stroke="black" cx="58.6" cy="-76.55" rx="18" ry="18"/>
<text text-anchor="middle" x="58.6" y="-72.85" font-family="Times New Roman,serif" font-size="14.00">&#45;</text>
</g>
<!-- Initial&#45;&gt;&#45; -->
<g id="edge1" class="edge">
<title>Initial&#45;&gt;&#45;</title>
<path fill="none" stroke="black" d="M3.75,-76.55C7.25,-76.55 19.84,-76.55 31.96,-76.55"/>
<polygon fill="black" stroke="black" points="32.08,-79.53 40.58,-76.55 32.08,-73.58 32.08,-79.53"/>
</g>
<!-- + -->
<g id="node2" class="node">
<title>+</title>
<ellipse fill="none" stroke="black" cx="697.38" cy="-146.55" rx="18" ry="18"/>
<ellipse fill="none" stroke="black" cx="697.38" cy="-146.55" rx="22" ry="22"/>
<text text-anchor="middle" x="697.38" y="-142.85" font-family="Times New Roman,serif" font-size="14.00">+</text>
</g>
<!-- +&#45;&gt;+ -->
<g id="edge20" class="edge">
<title>+&#45;&gt;+</title>
<path fill="none" stroke="black" d="M693.13,-168.36C692.73,-178.12 694.14,-186.55 697.38,-186.55 699.6,-186.55 700.97,-182.57 701.47,-176.9"/>
<polygon fill="black" stroke="black" points="704.44,-176.91 701.62,-168.36 698.5,-176.81 704.44,-176.91"/>
<text text-anchor="middle" x="697.38" y="-190.35" font-family="Times New Roman,serif" font-size="14.00"> 0 </text>
</g>
<!-- +&#45;&gt;+ -->
<g id="edge21" class="edge">
<title>+&#45;&gt;+</title>
<path fill="none" stroke="black" d="M690.18,-167.37C686.89,-185.44 689.29,-204.55 697.38,-204.55 704.2,-204.55 706.98,-190.95 705.7,-175.84"/>
<polygon fill="black" stroke="black" points="708.65,-175.4 704.58,-167.37 702.75,-176.19 708.65,-175.4"/>
<text text-anchor="middle" x="697.38" y="-208.35" font-family="Times New Roman,serif" font-size="14.00"> 1 </text>
</g>
<!-- q1 -->
<g id="node4" class="node">
<title>q1</title>
<ellipse fill="none" stroke="black" cx="147.75" cy="-105.55" rx="20.3" ry="20.3"/>
<text text-anchor="middle" x="147.75" y="-101.85" font-family="Times New Roman,serif" font-size="14.00">q1</text>
</g>
<!-- &#45;&#45;&gt;q1 -->
<g id="edge3" class="edge">
<title>&#45;&#45;&gt;q1</title>
<path fill="none" stroke="black" d="M75.99,-82.01C88.44,-86.15 105.81,-91.93 120.23,-96.73"/>
<polygon fill="black" stroke="black" points="119.31,-99.56 128.32,-99.42 121.19,-93.92 119.31,-99.56"/>
<text text-anchor="middle" x="102.1" y="-96.35" font-family="Times New Roman,serif" font-size="14.00"> 1 </text>
</g>
<!-- q3 -->
<g id="node6" class="node">
<title>q3</title>
<ellipse fill="none" stroke="black" cx="147.75" cy="-47.55" rx="20.3" ry="20.3"/>
<text text-anchor="middle" x="147.75" y="-43.85" font-family="Times New Roman,serif" font-size="14.00">q3</text>
</g>
<!-- &#45;&#45;&gt;q3 -->
<g id="edge2" class="edge">
<title>&#45;&#45;&gt;q3</title>
<path fill="none" stroke="black" d="M75.56,-70.4C81.51,-68.17 88.34,-65.68 94.6,-63.55 102.85,-60.76 111.91,-57.9 120.13,-55.4"/>
<polygon fill="black" stroke="black" points="121.05,-58.23 128.32,-52.92 119.33,-52.53 121.05,-58.23"/>
<text text-anchor="middle" x="102.1" y="-67.35" font-family="Times New Roman,serif" font-size="14.00"> 0 </text>
</g>
<!-- q4 -->
<g id="node7" class="node">
<title>q4</title>
<ellipse fill="none" stroke="black" cx="239.04" cy="-157.55" rx="20.3" ry="20.3"/>
<text text-anchor="middle" x="239.04" y="-153.85" font-family="Times New Roman,serif" font-size="14.00">q4</text>
</g>
<!-- q1&#45;&gt;q4 -->
<g id="edge4" class="edge">
<title>q1&#45;&gt;q4</title>
<path fill="none" stroke="black" d="M165.54,-115.34C179.14,-123.25 198.47,-134.51 213.75,-143.41"/>
<polygon fill="black" stroke="black" points="212.48,-146.11 221.32,-147.82 215.48,-140.97 212.48,-146.11"/>
<text text-anchor="middle" x="193.4" y="-138.35" font-family="Times New Roman,serif" font-size="14.00"> 0 </text>
</g>
<!-- q5 -->
<g id="node8" class="node">
<title>q5</title>
<ellipse fill="none" stroke="black" cx="330.34" cy="-89.55" rx="20.3" ry="20.3"/>
<text text-anchor="middle" x="330.34" y="-85.85" font-family="Times New Roman,serif" font-size="14.00">q5</text>
</g>
<!-- q1&#45;&gt;q5 -->
<g id="edge5" class="edge">
<title>q1&#45;&gt;q5</title>
<path fill="none" stroke="black" d="M168.07,-103.84C200.12,-101 264.37,-95.31 301.37,-92.03"/>
<polygon fill="black" stroke="black" points="301.95,-94.97 310.15,-91.25 301.42,-89.04 301.95,-94.97"/>
<text text-anchor="middle" x="239.04" y="-102.35" font-family="Times New Roman,serif" font-size="14.00"> 1 </text>
</g>
<!-- q2 -->
<g id="node5" class="node">
<title>q2</title>
<ellipse fill="none" stroke="black" cx="239.04" cy="-48.55" rx="20.3" ry="20.3"/>
<text text-anchor="middle" x="239.04" y="-44.85" font-family="Times New Roman,serif" font-size="14.00">q2</text>
</g>
<!-- q2&#45;&gt;q5 -->
<g id="edge6" class="edge">
<title>q2&#45;&gt;q5</title>
<path fill="none" stroke="black" d="M257.69,-56.66C270.9,-62.72 289.16,-71.1 303.94,-77.89"/>
<polygon fill="black" stroke="black" points="302.77,-80.63 311.74,-81.47 305.25,-75.22 302.77,-80.63"/>
<text text-anchor="middle" x="284.69" y="-75.35" font-family="Times New Roman,serif" font-size="14.00"> 0 </text>
</g>
<!-- q2&#45;&gt;q5 -->
<g id="edge7" class="edge">
<title>q2&#45;&gt;q5</title>
<path fill="none" stroke="black" d="M259.15,-44.93C269.37,-43.86 281.93,-44 292.19,-48.55 300.49,-52.23 307.72,-58.78 313.55,-65.58"/>
<polygon fill="black" stroke="black" points="311.3,-67.53 318.89,-72.37 315.97,-63.85 311.3,-67.53"/>
<text text-anchor="middle" x="284.69" y="-52.35" font-family="Times New Roman,serif" font-size="14.00"> 1 </text>
</g>
<!-- q3&#45;&gt;q2 -->
<g id="edge9" class="edge">
<title>q3&#45;&gt;q2</title>
<path fill="none" stroke="black" d="M168.12,-47.77C180.41,-47.91 196.5,-48.09 210.15,-48.24"/>
<polygon fill="black" stroke="black" points="210.17,-51.22 218.71,-48.34 210.24,-45.27 210.17,-51.22"/>
<text text-anchor="middle" x="193.4" y="-52.35" font-family="Times New Roman,serif" font-size="14.00"> 1 </text>
</g>
<!-- q3&#45;&gt;q5 -->
<g id="edge8" class="edge">
<title>q3&#45;&gt;q5</title>
<path fill="none" stroke="black" d="M163.23,-34.43C184.52,-16.82 225.39,10.59 259.19,-4.55 285.36,-16.28 304.93,-43.4 316.66,-63.88"/>
<polygon fill="black" stroke="black" points="314.07,-65.34 320.77,-71.36 319.28,-62.48 314.07,-65.34"/>
<text text-anchor="middle" x="239.04" y="-8.35" font-family="Times New Roman,serif" font-size="14.00"> 0 </text>
</g>
<!-- q4&#45;&gt;q5 -->
<g id="edge10" class="edge">
<title>q4&#45;&gt;q5</title>
<path fill="none" stroke="black" d="M259.23,-160.21C269.72,-160.7 282.5,-159.64 292.19,-153.55 305.53,-145.18 314.61,-130.16 320.45,-116.77"/>
<polygon fill="black" stroke="black" points="323.28,-117.71 323.68,-108.72 317.76,-115.5 323.28,-117.71"/>
<text text-anchor="middle" x="284.69" y="-162.35" font-family="Times New Roman,serif" font-size="14.00"> 0 </text>
</g>
<!-- q4&#45;&gt;q5 -->
<g id="edge11" class="edge">
<title>q4&#45;&gt;q5</title>
<path fill="none" stroke="black" d="M255.6,-145.71C269.73,-134.95 290.73,-118.95 306.72,-106.78"/>
<polygon fill="black" stroke="black" points="308.71,-109.01 313.67,-101.49 305.1,-104.27 308.71,-109.01"/>
<text text-anchor="middle" x="284.69" y="-131.35" font-family="Times New Roman,serif" font-size="14.00"> 1 </text>
</g>
<!-- q6 -->
<g id="node9" class="node">
<title>q6</title>
<ellipse fill="none" stroke="black" cx="421.64" cy="-135.55" rx="20.3" ry="20.3"/>
<text text-anchor="middle" x="421.64" y="-131.85" font-family="Times New Roman,serif" font-size="14.00">q6</text>
</g>
<!-- q5&#45;&gt;q6 -->
<g id="edge13" class="edge">
<title>q5&#45;&gt;q6</title>
<path fill="none" stroke="black" d="M348.56,-98.42C361.9,-105.3 380.58,-114.92 395.58,-122.64"/>
<polygon fill="black" stroke="black" points="394.55,-125.46 403.47,-126.71 397.28,-120.18 394.55,-125.46"/>
<text text-anchor="middle" x="375.99" y="-118.35" font-family="Times New Roman,serif" font-size="14.00"> 1 </text>
</g>
<!-- q7 -->
<g id="node10" class="node">
<title>q7</title>
<ellipse fill="none" stroke="black" cx="512.93" cy="-112.55" rx="20.3" ry="20.3"/>
<text text-anchor="middle" x="512.93" y="-108.85" font-family="Times New Roman,serif" font-size="14.00">q7</text>
</g>
<!-- q5&#45;&gt;q7 -->
<g id="edge12" class="edge">
<title>q5&#45;&gt;q7</title>
<path fill="none" stroke="black" d="M350.82,-87.74C378.84,-85.75 431.88,-84.28 474.79,-96.55 478.61,-97.65 482.56,-99.04 486.4,-100.55"/>
<polygon fill="black" stroke="black" points="485.52,-103.41 494.51,-103.96 487.83,-97.92 485.52,-103.41"/>
<text text-anchor="middle" x="421.64" y="-93.35" font-family="Times New Roman,serif" font-size="14.00"> 0 </text>
</g>
<!-- q6&#45;&gt;q7 -->
<g id="edge14" class="edge">
<title>q6&#45;&gt;q7</title>
<path fill="none" stroke="black" d="M441.49,-130.95C451.41,-128.5 463.77,-125.41 474.79,-122.55 478.04,-121.71 481.45,-120.81 484.83,-119.91"/>
<polygon fill="black" stroke="black" points="485.61,-122.78 493.05,-117.71 484.07,-117.04 485.61,-122.78"/>
<text text-anchor="middle" x="467.29" y="-129.35" font-family="Times New Roman,serif" font-size="14.00"> 0 </text>
</g>
<!-- q8 -->
<g id="node11" class="node">
<title>q8</title>
<ellipse fill="none" stroke="black" cx="604.23" cy="-146.55" rx="20.3" ry="20.3"/>
<text text-anchor="middle" x="604.23" y="-142.85" font-family="Times New Roman,serif" font-size="14.00">q8</text>
</g>
<!-- q6&#45;&gt;q8 -->
<g id="edge15" class="edge">
<title>q6&#45;&gt;q8</title>
<path fill="none" stroke="black" d="M441.41,-140.77C447.26,-142.21 453.75,-143.63 459.79,-144.55 506.56,-151.7 518.83,-153.09 566.08,-150.55 569.09,-150.39 572.22,-150.16 575.35,-149.88"/>
<polygon fill="black" stroke="black" points="575.82,-152.83 583.98,-149.02 575.23,-146.91 575.82,-152.83"/>
<text text-anchor="middle" x="512.93" y="-155.35" font-family="Times New Roman,serif" font-size="14.00"> 1 </text>
</g>
<!-- q7&#45;&gt;q6 -->
<g id="edge17" class="edge">
<title>q7&#45;&gt;q6</title>
<path fill="none" stroke="black" d="M494.13,-104.98C483.85,-101.71 470.81,-99.46 459.79,-103.55 453.28,-105.97 447.15,-110.1 441.81,-114.6"/>
<polygon fill="black" stroke="black" points="439.75,-112.45 435.51,-120.4 443.78,-116.83 439.75,-112.45"/>
<text text-anchor="middle" x="467.29" y="-107.35" font-family="Times New Roman,serif" font-size="14.00"> 1 </text>
</g>
<!-- q7&#45;&gt;q8 -->
<g id="edge16" class="edge">
<title>q7&#45;&gt;q8</title>
<path fill="none" stroke="black" d="M532,-119.44C544.96,-124.37 562.6,-131.08 577.08,-136.6"/>
<polygon fill="black" stroke="black" points="576.18,-139.44 585.19,-139.68 578.3,-133.88 576.18,-139.44"/>
<text text-anchor="middle" x="558.58" y="-135.35" font-family="Times New Roman,serif" font-size="14.00"> 0 </text>
</g>
<!-- q8&#45;&gt;+ -->
<g id="edge18" class="edge">
<title>q8&#45;&gt;+</title>
<path fill="none" stroke="black" d="M624.56,-146.55C636.73,-146.55 652.7,-146.55 666.48,-146.55"/>
<polygon fill="black" stroke="black" points="666.67,-149.53 675.17,-146.55 666.67,-143.58 666.67,-149.53"/>
<text text-anchor="middle" x="649.88" y="-150.35" font-family="Times New Roman,serif" font-size="14.00"> 0 </text>
</g>
<!-- q8&#45;&gt;+ -->
<g id="edge19" class="edge">
<title>q8&#45;&gt;+</title>
<path fill="none" stroke="black" d="M621.59,-136.08C627.84,-132.65 635.2,-129.29 642.38,-127.55 651.85,-125.27 661.98,-127.52 670.88,-131.17"/>
<polygon fill="black" stroke="black" points="669.7,-133.9 678.65,-134.82 672.23,-128.51 669.7,-133.9"/>
<text text-anchor="middle" x="649.88" y="-131.35" font-family="Times New Roman,serif" font-size="14.00"> 1 </text>
</g>
</g>
</svg>
