<?xml version="1.0" encoding="UTF-8" standalone="no"?>
<!DOCTYPE svg PUBLIC "-//W3C//DTD SVG 1.1//EN"
 "http://www.w3.org/Graphics/SVG/1.1/DTD/svg11.dtd">
<!-- Generated by graphviz version 2.47.3 (20210619.1520)
 -->
<!-- Pages: 1 -->
<svg width="110pt" height="390pt"
 viewBox="0.00 0.00 110.00 390.30" xmlns="http://www.w3.org/2000/svg" xmlns:xlink="http://www.w3.org/1999/xlink">
<g id="graph0" class="graph" transform="scale(1 1) rotate(0) translate(4 386.3)">
<polygon fill="white" stroke="transparent" points="-4,4 -4,-386.3 106,-386.3 106,4 -4,4"/>
<!-- fake -->
<g id="node1" class="node">
<title>fake</title>
</g>
<!-- q0 -->
<g id="node5" class="node">
<title>q0</title>
<ellipse fill="none" stroke="black" cx="70" cy="-285.15" rx="20.27" ry="20.27"/>
<ellipse fill="none" stroke="black" cx="70" cy="-285.15" rx="24.3" ry="24.3"/>
<text text-anchor="middle" x="70" y="-281.45" font-family="Times New Roman,serif" font-size="14.00">q0</text>
</g>
<!-- fake&#45;&gt;q0 -->
<g id="edge1" class="edge">
<title>fake&#45;&gt;q0</title>
<path fill="none" stroke="black" stroke-width="2" d="M70,-346.17C70,-338.3 70,-328.69 70,-319.48"/>
<polygon fill="black" stroke="black" stroke-width="2" points="73.5,-319.37 70,-309.37 66.5,-319.37 73.5,-319.37"/>
</g>
<!-- q3 -->
<g id="node2" class="node">
<title>q3</title>
<ellipse fill="none" stroke="black" cx="27" cy="-105" rx="27" ry="18"/>
<text text-anchor="middle" x="27" y="-101.3" font-family="Times New Roman,serif" font-size="14.00">q3</text>
</g>
<!-- q2 -->
<g id="node3" class="node">
<title>q2</title>
<ellipse fill="none" stroke="black" cx="27" cy="-192" rx="27" ry="18"/>
<text text-anchor="middle" x="27" y="-188.3" font-family="Times New Roman,serif" font-size="14.00">q2</text>
</g>
<!-- q3&#45;&gt;q2 -->
<g id="edge2" class="edge">
<title>q3&#45;&gt;q2</title>
<path fill="none" stroke="black" d="M27,-123.18C27,-134.81 27,-150.42 27,-163.73"/>
<polygon fill="black" stroke="black" points="23.5,-163.8 27,-173.8 30.5,-163.8 23.5,-163.8"/>
<text text-anchor="middle" x="30.5" y="-144.8" font-family="Times New Roman,serif" font-size="14.00">1</text>
</g>
<!-- q1 -->
<g id="node4" class="node">
<title>q1</title>
<ellipse fill="none" stroke="black" cx="70" cy="-18" rx="27" ry="18"/>
<text text-anchor="middle" x="70" y="-14.3" font-family="Times New Roman,serif" font-size="14.00">q1</text>
</g>
<!-- q3&#45;&gt;q1 -->
<g id="edge5" class="edge">
<title>q3&#45;&gt;q1</title>
<path fill="none" stroke="black" d="M26.67,-86.97C27.12,-76.9 28.85,-64.16 34,-54 36.78,-48.52 40.75,-43.41 45.06,-38.87"/>
<polygon fill="black" stroke="black" points="47.63,-41.25 52.46,-31.82 42.8,-36.18 47.63,-41.25"/>
<text text-anchor="middle" x="37.5" y="-57.8" font-family="Times New Roman,serif" font-size="14.00">0</text>
</g>
<!-- q2&#45;&gt;q3 -->
<g id="edge7" class="edge">
<title>q2&#45;&gt;q3</title>
<path fill="none" stroke="black" d="M20.21,-174.43C17.02,-164.75 14.27,-152.25 16,-141 16.42,-138.26 17.02,-135.44 17.71,-132.65"/>
<polygon fill="black" stroke="black" points="21.13,-133.42 20.57,-122.84 14.41,-131.47 21.13,-133.42"/>
<text text-anchor="middle" x="19.5" y="-144.8" font-family="Times New Roman,serif" font-size="14.00">1</text>
</g>
<!-- q2&#45;&gt;q0 -->
<g id="edge9" class="edge">
<title>q2&#45;&gt;q0</title>
<path fill="none" stroke="black" d="M34.77,-209.48C40.58,-221.78 48.68,-238.95 55.65,-253.72"/>
<polygon fill="black" stroke="black" points="52.59,-255.46 60.03,-263.01 58.93,-252.47 52.59,-255.46"/>
<text text-anchor="middle" x="52.5" y="-231.8" font-family="Times New Roman,serif" font-size="14.00">0</text>
</g>
<!-- q1&#45;&gt;q3 -->
<g id="edge3" class="edge">
<title>q1&#45;&gt;q3</title>
<path fill="none" stroke="black" d="M61.73,-35.34C55.55,-47.56 46.99,-64.49 39.91,-78.49"/>
<polygon fill="black" stroke="black" points="36.68,-77.11 35.29,-87.61 42.93,-80.27 36.68,-77.11"/>
<text text-anchor="middle" x="54.5" y="-57.8" font-family="Times New Roman,serif" font-size="14.00">0</text>
</g>
<!-- q1&#45;&gt;q0 -->
<g id="edge6" class="edge">
<title>q1&#45;&gt;q0</title>
<path fill="none" stroke="black" d="M78.03,-35.34C80.45,-41.1 82.79,-47.7 84,-54 99.89,-136.48 97.71,-160.13 84,-243 83.49,-246.1 82.77,-249.28 81.93,-252.44"/>
<polygon fill="black" stroke="black" points="78.5,-251.69 78.92,-262.28 85.19,-253.74 78.5,-251.69"/>
<text text-anchor="middle" x="98.5" y="-144.8" font-family="Times New Roman,serif" font-size="14.00">1</text>
</g>
<!-- q0&#45;&gt;q2 -->
<g id="edge8" class="edge">
<title>q0&#45;&gt;q2</title>
<path fill="none" stroke="black" d="M51.12,-269.29C43.51,-262.2 35.49,-253.07 31,-243 27.92,-236.08 26.47,-228.09 25.9,-220.55"/>
<polygon fill="black" stroke="black" points="29.39,-220.26 25.6,-210.36 22.39,-220.46 29.39,-220.26"/>
<text text-anchor="middle" x="34.5" y="-231.8" font-family="Times New Roman,serif" font-size="14.00">0</text>
</g>
<!-- q0&#45;&gt;q1 -->
<g id="edge4" class="edge">
<title>q0&#45;&gt;q1</title>
<path fill="none" stroke="black" d="M70,-260.62C70,-211.51 70,-98.37 70,-46.22"/>
<polygon fill="black" stroke="black" points="73.5,-46.07 70,-36.07 66.5,-46.07 73.5,-46.07"/>
<text text-anchor="middle" x="73.5" y="-144.8" font-family="Times New Roman,serif" font-size="14.00">1</text>
</g>
</g>
</svg>
